# xmcd
#
# Track frame offsets: 
#        183
#        10610
#        23560
#        32868
#        42733
#        55860
#        79568
#        89258
#        98708
#        109560
#        122038
#        137333
#        149828
#        163238
#        173828
#        188858
#        195485
#
# Disc length: 2779 seconds
#
# Revision: 2
# Processed by: cddbd v1.5.2PL0 Copyright (c) Steve Scherf et al.
# Submitted via: ExactAudioCopyFreeDBPlugin 1.0
#
DISCID=dc0ad911
DTITLE=Various Artist - Great American Train Songs [Roundhouse Record
DTITLE=s]
DYEAR=1989
DGENRE=Trains
TTITLE0=Johnny Horton - Coal Smoke, Valve Oil and Steam
TTITLE1=Carl Storey - Orange Blossom Special
TTITLE2=Johnny Cash - Blue Train
TTITLE3=Jerry Lee Lewis - Night Train to Memphis
TTITLE4=Johnny Cash - Folsom Prison Blues
TTITLE5=Simms Webb - Eyewitness Account of Casey Jones' Train Wreck (b
TTITLE5=y the actual fireman)
TTITLE6=Jim Glaser - Casey Jones
TTITLE7=Roy Acuff - Freight Train Blues
TTITLE8=Johnny Cash - Lonesome Whistle
TTITLE9=Rex Allen, Jr. - Let Me Ride the Southbound
TTITLE10=Dan Thomas - Railroad Blues
TTITLE11=Roy Acuff - Tennessee Central #9
TTITLE12=Hawkshaw Hawkins - Pan-American
TTITLE13=Reno and Smiley - Freight Train Boogie
TTITLE14=The Phipps Family - The Wreck of the L and N
TTITLE15=Jim Glaser - Dying Hobo
TTITLE16=Wayne Raney - Country Express
EXTD=
EXTT0=
EXTT1=
EXTT2=
EXTT3=
EXTT4=
EXTT5=
EXTT6=
EXTT7=
EXTT8=
EXTT9=
EXTT10=
EXTT11=
EXTT12=
EXTT13=
EXTT14=
EXTT15=
EXTT16=
PLAYORDER=
